<svg width="1366" height="128" viewBox="0 0 1366 128" fill="none" xmlns="http://www.w3.org/2000/svg">
<g filter="url(#filter0_d)">
<path fill-rule="evenodd" clip-rule="evenodd" d="M1366 0H0V85.071H-1V109.725C2.07776 109.924 5.39228 110.122 8.70679 109.725C14.1524 109.043 19.7908 108.652 25.4664 108.259C33.8555 107.678 42.3258 107.091 50.375 105.549C56.5305 104.456 64.1065 104.953 70.9723 105.748C74.05 106.146 77.3646 106.345 80.6791 106.146C84.8896 105.824 88.7908 106.542 92.6326 107.25C93.5432 107.417 94.4504 107.584 95.3576 107.736C101.75 108.731 107.905 108.731 114.534 108.432C117.218 108.366 119.901 108.388 122.584 108.41C123.926 108.421 125.267 108.432 126.609 108.432C129.923 108.432 133.001 108.333 134.895 106.643C136.316 105.351 139.393 105.549 142.234 105.848C142.48 105.876 142.725 105.905 142.969 105.934C146.961 106.401 150.78 106.848 155.019 106.941C165.199 107.339 173.722 105.748 182.245 103.859C185.086 103.164 188.164 102.468 191.479 103.164C196.056 104.193 200.633 103.848 205.21 103.504C207.262 103.349 209.314 103.194 211.366 103.164C219.139 103.068 226.692 102.601 234.45 102.121L235.277 102.07C238.829 101.871 242.853 102.368 245.931 102.965C252.133 104.18 258.516 103.879 264.763 103.585C265.671 103.542 266.575 103.5 267.476 103.462C279.076 102.965 290.204 103.561 300.384 105.748C302.353 106.162 304.387 106.226 306.417 106.29C308.293 106.349 310.166 106.408 311.985 106.742C320.745 108.333 329.504 109.625 338.501 110.818C341.539 111.274 344.578 110.811 347.616 110.347C347.892 110.305 348.168 110.263 348.444 110.222C350.362 109.924 352.216 109.545 354.07 109.166C358.395 108.282 362.72 107.398 367.858 107.538C370.226 107.587 372.534 107.662 374.842 107.736C377.151 107.811 379.459 107.886 381.826 107.935C382.194 107.951 382.562 107.971 382.929 107.991C384.924 108.101 386.892 108.209 388.692 107.538C389.166 107.438 390.113 107.339 390.586 107.438C395.94 108.375 401.669 108.449 407.359 108.522C410.727 108.565 414.082 108.608 417.339 108.83C417.646 108.83 417.979 108.84 418.32 108.851C419.029 108.874 419.777 108.897 420.417 108.83C432.491 107.14 443.382 108.234 452.852 111.514C455.187 112.288 457.905 112.768 460.609 113.245C463.113 113.686 465.604 114.125 467.767 114.795C467.858 114.814 467.958 114.837 468.062 114.86C468.496 114.96 468.996 115.074 469.187 114.993C474.786 113.902 479.033 115.009 483.213 116.098C483.983 116.298 484.75 116.498 485.523 116.683C494.283 118.672 503.516 119.268 512.039 117.479C517.484 116.385 521.273 116.485 525.771 117.578C530.071 118.594 534.829 118.809 539.568 119.023C543.178 119.186 546.778 119.349 550.156 119.865C552.606 120.26 554.606 119.711 556.395 119.22C556.853 119.094 557.298 118.972 557.732 118.87C564.598 116.982 572.411 116.286 580.46 116.087C583.065 116.087 585.195 115.689 586.853 114.894C591.351 112.906 596.559 112.309 602.241 113.403C602.607 113.464 602.971 113.527 603.334 113.589C607.673 114.335 611.858 115.054 616.446 113.403C617.768 112.848 619.909 113.239 621.535 113.537C621.657 113.559 621.776 113.581 621.892 113.602C628.284 114.596 634.913 114.993 641.542 114.695C644.11 114.575 646.506 114.167 648.937 113.752C650.541 113.479 652.159 113.203 653.853 113.005C657.168 112.608 660.009 112.608 663.56 113.204C677.055 115.689 691.023 117.578 705.938 117.777C709.963 117.876 713.514 118.075 717.302 118.672C722.325 119.55 727.163 118.875 731.816 118.226C732.427 118.141 733.034 118.056 733.638 117.976C734.19 117.909 734.717 117.799 735.243 117.689C736.295 117.468 737.347 117.247 738.61 117.379C744.943 117.954 751.028 117.334 757.045 116.721C759.351 116.486 761.647 116.252 763.942 116.087C765.363 115.988 766.547 115.988 767.967 115.988C771.518 116.087 774.833 115.888 778.384 115.192C784.566 113.971 791.166 113.336 797.757 112.701C799.748 112.51 801.739 112.318 803.716 112.111C806.84 111.834 809.164 112.133 811.562 112.442C812.617 112.578 813.686 112.715 814.844 112.806C819.852 113.143 824.86 112.696 829.868 112.25C830.779 112.169 831.689 112.088 832.6 112.011C833.299 111.938 833.998 111.861 834.697 111.785C839.683 111.24 844.692 110.693 849.883 111.216C851.067 111.315 852.487 111.315 853.434 111.116C862.904 108.83 873.321 108.532 883.975 108.333C885.496 108.333 886.727 107.896 888.041 107.43C889.387 106.953 890.818 106.445 892.735 106.345C893.319 106.345 893.903 106.277 894.471 106.212C895.284 106.119 896.063 106.029 896.76 106.146C900.232 106.719 903.835 106.691 907.431 106.664C910.7 106.639 913.964 106.615 917.12 107.041C924.227 107.969 931.439 107.836 938.616 107.703C942.198 107.637 945.771 107.571 949.318 107.637C949.871 107.67 950.397 107.67 950.905 107.67C951.922 107.67 952.87 107.67 953.817 107.935C957.605 108.929 961.156 109.327 964.234 107.438C965.181 106.842 967.311 106.544 968.969 106.941C972.52 107.637 976.071 107.438 979.622 107.239C979.851 107.239 980.104 107.219 980.366 107.198C980.918 107.153 981.508 107.105 981.99 107.239C986.607 108.661 992.024 108.907 997.396 109.15C1000.29 109.281 1003.17 109.412 1005.9 109.725C1014.9 110.818 1023.89 110.818 1033.13 110.421C1035.62 110.326 1038.11 110.526 1040.62 110.728C1043.37 110.949 1046.15 111.173 1048.99 111.017C1052.9 110.818 1056.86 110.694 1060.83 110.57C1064.79 110.445 1068.76 110.321 1072.67 110.122C1075.98 110.023 1078.58 110.023 1081.66 110.719C1085.92 111.812 1090.66 112.309 1095.63 111.912C1097.76 111.713 1099.66 111.514 1101.08 110.719C1104.15 109.128 1108.18 108.631 1112.68 108.731C1115.4 108.78 1118.12 108.88 1120.84 108.979C1123.57 109.079 1126.29 109.178 1129.01 109.228C1131.14 109.228 1133.04 109.426 1134.69 110.023C1136.61 110.739 1138.91 110.649 1141.42 110.552C1141.7 110.541 1141.99 110.53 1142.27 110.52C1150.08 110.222 1156.95 109.725 1161.21 106.444C1161.92 105.848 1165.71 105.549 1167.84 105.649C1173.89 106.023 1179.81 105.722 1185.7 105.423C1187.64 105.324 1189.58 105.226 1191.51 105.152C1193.07 105.095 1194.63 105.071 1196.18 105.046C1200.07 104.985 1203.96 104.925 1207.85 104.357C1209.74 104.058 1212.35 104.058 1214.01 104.456C1221.89 106.427 1229.78 105.584 1237.54 104.755C1239.57 104.538 1241.59 104.322 1243.6 104.158C1250.94 103.561 1257.57 103.561 1263.96 105.052C1268.22 106.047 1272.25 106.444 1276.98 105.947L1278.33 105.809C1286.68 104.953 1295.42 104.058 1303.73 104.058C1309.04 104.058 1313.47 103.37 1317.92 102.68C1320.03 102.354 1322.13 102.027 1324.33 101.772C1330.49 101.076 1335.22 101.971 1339.72 103.362C1342.32 104.158 1344.93 104.555 1348.24 104.754C1352.53 104.962 1356.6 105.508 1360.67 106.056C1362.44 106.293 1364.21 106.532 1366 106.742V92.5147V85.071V0Z" fill="white"/>
</g>
<defs>
<filter id="filter0_d" x="-5" y="0" width="1375" height="128" filterUnits="userSpaceOnUse" color-interpolation-filters="sRGB">
<feFlood flood-opacity="0" result="BackgroundImageFix"/>
<feColorMatrix in="SourceAlpha" type="matrix" values="0 0 0 0 0 0 0 0 0 0 0 0 0 0 0 0 0 0 127 0"/>
<feOffset dy="4"/>
<feGaussianBlur stdDeviation="2"/>
<feColorMatrix type="matrix" values="0 0 0 0 0 0 0 0 0 0 0 0 0 0 0 0 0 0 0.25 0"/>
<feBlend mode="normal" in2="BackgroundImageFix" result="effect1_dropShadow"/>
<feBlend mode="normal" in="SourceGraphic" in2="effect1_dropShadow" result="shape"/>
</filter>
</defs>
</svg>
