<svg width="210" height="80" viewBox="0 0 210 80" fill="none" xmlns="http://www.w3.org/2000/svg">
<path opacity="0.2" d="M39.912 79.9569C61.8952 79.9569 79.7163 62.0868 79.7163 40.043C79.7163 17.9991 61.8952 0.128967 39.912 0.128967C17.9288 0.128967 0.10791 17.9991 0.10791 40.043C0.10791 62.0868 17.9288 79.9569 39.912 79.9569Z" fill="#242A30"/>
<path d="M64.7895 21.8064V17.1612C64.7895 14.5805 62.7307 12.344 59.9856 12.344C58.6131 12.344 57.4121 12.8601 56.5542 13.8924C51.5787 10.6236 45.7452 9.0752 39.9118 9.0752C34.0785 9.0752 28.2452 10.7956 23.2697 13.8924C22.4118 12.8601 21.0393 12.344 19.8383 12.344C17.2647 12.344 15.0342 14.4085 15.0342 16.9892V21.6343C11.2597 26.9676 9.0293 33.3333 9.0293 39.8709C9.0293 56.9031 22.9264 70.8386 39.9118 70.8386C56.8972 70.8386 70.7944 56.9031 70.7944 39.8709C70.7944 33.5053 68.564 27.1397 64.7895 21.8064ZM64.6179 52.6021C64.6179 56.387 61.5297 59.6558 57.5836 59.6558H44.8874L48.6619 50.1935H52.265C53.6376 49.8494 54.8385 48.6451 55.1816 47.2687V37.8064C54.8385 36.0859 53.2944 34.8816 51.4071 34.7096H47.2894C45.2306 34.7096 43.5148 36.43 43.5148 38.6666H43.3432V49.1612H35.9659V37.8064C35.6227 36.0859 34.0785 34.8816 32.1912 34.7096H28.0735C26.0147 34.7096 24.299 36.43 24.299 38.6666H24.1275V46.4085H24.299C24.299 48.1289 25.4999 49.8494 27.2156 50.1935H30.4755L34.0784 59.6558H21.7255C17.951 59.6558 14.6912 56.5591 14.6912 52.6021V25.5913L24.1275 20.43H55.0101L64.2749 25.5913L64.6179 52.6021Z" fill="#242A30"/>
<path d="M24.4705 20.43L15.0342 25.5913V52.6021C15.0342 56.387 18.1224 59.6558 22.0685 59.6558H34.4216L30.8187 50.1935H27.5589C25.8432 49.6773 24.642 48.1289 24.642 46.4085H24.4705V38.6666H24.642C24.642 36.6021 26.3579 34.7096 28.4167 34.7096H32.5344C34.2501 34.7096 35.7942 36.0859 36.3089 37.8064V49.1612H43.6865V38.6666H43.858C43.858 36.6021 45.5736 34.7096 47.6324 34.7096H51.7501C53.4658 34.7096 55.0099 36.0859 55.5246 37.8064V47.2687C55.1815 48.6451 54.1521 49.8494 52.608 50.1935H49.0051L45.2304 59.6558H57.9266C61.7011 59.6558 64.9609 56.5591 64.9609 52.6021V25.4193L55.6963 20.258H24.4705V20.43Z" fill="#F6F6F6"/>
<path d="M91.0396 60.3441V46.4086H97.9024C97.7308 48.4731 98.5886 50.5376 99.9611 52.086C101.162 53.2903 102.535 53.8064 104.25 53.8064C105.451 53.8064 106.652 53.4623 107.339 52.6021C108.197 51.7419 108.54 50.7097 108.54 49.5054C108.54 48.3011 108.197 47.0967 107.339 46.4086C105.966 45.2043 104.422 44.172 102.878 43.4839C99.275 41.9355 96.1865 40.043 93.2699 37.4623C91.5542 35.5699 90.5247 32.9892 90.6963 30.4086C90.5247 27.3118 91.7258 24.215 93.9562 22.1505C96.015 20.2581 98.7602 19.2258 101.505 19.2258C104.422 19.0537 107.339 20.6021 109.054 23.0107V19.5699H115.917V31.957H109.054C108.883 30.2365 108.196 28.6881 106.995 27.4838C105.966 26.4516 104.594 25.9354 103.221 25.9354C102.192 25.9354 101.162 26.2795 100.304 26.9677C99.6181 27.4838 99.1033 28.344 99.1033 29.3763C99.1033 30.2365 99.4464 31.0967 100.133 31.7849C101.848 33.1612 103.736 34.1935 105.795 34.8817C108.197 35.914 110.427 37.1183 112.657 38.4946C114.201 39.5269 115.574 41.0753 116.432 42.7957C117.461 44.6882 117.804 46.7527 117.804 48.8172C117.976 52.2581 116.775 55.5269 114.373 57.9355C112.143 60 109.226 61.0322 106.138 61.0322C102.878 61.2043 99.7896 59.8279 97.9024 57.0752V60.5161H91.2111L91.0396 60.3441Z" fill="#242A30"/>
<path d="M119.349 60.344V53.6343H124.152V26.6235H119.349V19.7418H155.207V32.645H147.314V26.6235H134.79V36.0859H144.913V42.9676H134.79V53.6343H147.314V47.4408H155.207V60.344H119.349Z" fill="#242A30"/>
<path d="M209.251 26.4516V19.5699H191.408L183.687 43.4839L175.795 19.5699H158.124V26.4516H161.898V53.4623H158.124V60.172H173.05V53.4623H169.276V26.4516L180.428 60.344H186.947L197.928 26.4516H198.099V53.4623H194.325V60.172H209.251V53.4623H205.477V26.4516H209.251Z" fill="#242A30"/>
</svg>
